<svg xmlns="http://www.w3.org/2000/svg" viewBox="0 0 400 520" width="400" height="520">
  <defs>
    <radialGradient id="glow-p20" cx="50%" cy="55%" r="55%">
      <stop offset="0%" stop-color="#B8925A" stop-opacity="0.28"/>
      <stop offset="100%" stop-color="#B8925A" stop-opacity="0"/>
    </radialGradient>
    <linearGradient id="liquid-p20" x1="0%" y1="0%" x2="100%" y2="100%">
      <stop offset="0%" stop-color="#4A2F1E"/>
      <stop offset="100%" stop-color="#241209"/>
    </linearGradient>
    <linearGradient id="cap-p20" x1="0%" y1="0%" x2="100%" y2="100%">
      <stop offset="0%" stop-color="#B8925A"/>
      <stop offset="100%" stop-color="#7A5A32"/>
    </linearGradient>
    <linearGradient id="glass-p20" x1="0%" y1="0%" x2="100%" y2="100%">
      <stop offset="0%" stop-color="#F8F4EC" stop-opacity="0.22"/>
      <stop offset="100%" stop-color="#F8F4EC" stop-opacity="0.06"/>
    </linearGradient>
    <clipPath id="clip-p20">
      <path d="M180,195 L220,195 L255,455 Q257,460 250,460 L150,460 Q143,460 145,455 Z"/>
    </clipPath>
  </defs>

  <ellipse cx="200" cy="475" rx="120" ry="18" fill="#07111F" opacity="0.35"/>
  <ellipse cx="200" cy="300" rx="180" ry="220" fill="url(#glow-p20)"/>

  <rect x="185" y="150" width="30" height="45" fill="#0D1B2E" opacity="0.85"/>
  <rect x="170" y="78" width="60" height="72" rx="8" fill="url(#cap-p20)" stroke="#2a1f14" stroke-width="1" stroke-opacity="0.25"/>

  <path d="M180,195 L220,195 L255,455 Q257,460 250,460 L150,460 Q143,460 145,455 Z" fill="#0D1B2E" fill-opacity="0.18" stroke="#B8925A" stroke-width="1.5" stroke-opacity="0.55"/>

  <g clip-path="url(#clip-p20)">
    <rect x="120" y="273" width="180" height="197" fill="url(#liquid-p20)"/>
    <rect x="120" y="195" width="180" height="290" fill="url(#glass-p20)"/>
    <rect x="150" y="210" width="14" height="230" fill="#FFFFFF" opacity="0.20"/>
    <rect x="168" y="210" width="5" height="230" fill="#FFFFFF" opacity="0.12"/>
  </g>

  <rect x="163" y="325" width="74" height="46" rx="4" fill="#F8F4EC" fill-opacity="0.88" stroke="#B8925A" stroke-width="1"/>
  <text x="200" y="349" font-family="Georgia, 'Times New Roman', serif" font-size="15" letter-spacing="2" text-anchor="middle" fill="#7A5A32">N.B.</text>
  <text x="200" y="362" font-family="Georgia, 'Times New Roman', serif" font-size="7" letter-spacing="1.5" text-anchor="middle" fill="#7A5A32" opacity="0.85">OUD</text>
</svg>